<?xml version="1.0" encoding="utf-8"?>
<!-- Generator: Adobe Illustrator 24.2.0, SVG Export Plug-In . SVG Version: 6.00 Build 0)  -->
<svg version="1.1" id="Layer_1" xmlns="http://www.w3.org/2000/svg" xmlns:xlink="http://www.w3.org/1999/xlink" x="0px" y="0px"
	 viewBox="0 0 871 158" style="enable-background:new 0 0 871 158;" xml:space="preserve">
<style type="text/css">
	.st0{fill:#0C2F51;}
</style>
<g>
	<path class="st0" d="M383.3,9.2v62.6H365V9.2H383.3z"/>
	<path class="st0" d="M406.1,33.3c1.8-2.5,3.9-4.3,6.2-5.6c2.3-1.3,5-1.9,8.2-1.9c5.2,0,9.1,1.6,11.7,4.7c2.6,3.2,3.9,7.3,3.9,12.4
		v28.9h-16.6V47c0-2.3-0.5-4.2-1.5-5.6c-1-1.4-2.6-2.1-4.7-2.1c-2.1,0-3.8,0.8-5,2.4c-1.2,1.6-1.8,3.6-1.8,6.1v24.1h-16.6V27.2h15.8
		v6.1H406.1z"/>
	<path class="st0" d="M444.1,27.2v-2.5c0-5.1,1.3-8.8,3.9-11.3c1.1-1,2.4-1.8,3.9-2.4s3.3-1,5.2-1.3s3.9-0.4,6-0.4
		c2.1,0,4.2,0.1,6.3,0.4v11c-1.3,0-2.5,0-3.5,0c-1.1,0-2,0.2-2.8,0.6c-0.8,0.4-1.4,0.9-1.8,1.6c-0.4,0.7-0.7,1.8-0.7,3.1v1.1h8.8v10
		h-8.8v34.7h-16.6V37.2h-5.5v-10H444.1z"/>
	<path class="st0" d="M502.9,66.1h-0.3c-1.7,2.3-3.7,4.1-5.9,5.3s-4.9,1.8-8,1.8c-2.7,0-5-0.4-7-1.3c-2-0.8-3.6-2-4.9-3.5
		c-1.3-1.5-2.3-3.3-3-5.4c-0.7-2.1-1-4.4-1-7V27.2h16.6v24.9c0,4.7,2,7.1,6,7.1c2.2,0,3.8-0.7,5-2.1c1.2-1.4,1.8-3.3,1.8-5.8V27.2
		h16.6v44.7h-15.8V66.1z"/>
	<path class="st0" d="M535.4,72.3c-2.7-0.7-5.1-1.7-7.1-3.1s-3.5-3-4.6-5c-1.1-2-1.7-4.3-1.7-6.8h15.9c0.1,1.9,0.7,3.3,1.9,4.3
		c1.1,1,2.8,1.5,4.9,1.5c1.6,0,3-0.3,4.1-0.9c1.1-0.6,1.6-1.6,1.6-2.9c0-0.9-0.3-1.7-0.9-2.2c-0.6-0.6-1.4-1-2.4-1.3
		c-1-0.3-2.1-0.6-3.5-0.8c-1.3-0.2-2.7-0.4-4.2-0.7c-1.9-0.3-3.8-0.7-5.7-1.1c-1.9-0.5-3.7-1.2-5.2-2.2c-1.5-1-2.8-2.4-3.8-4.2
		c-1-1.8-1.5-4-1.5-6.8c0-2.3,0.5-4.3,1.6-6.1c1.1-1.8,2.6-3.3,4.4-4.5c1.9-1.2,4-2.1,6.5-2.8c2.5-0.6,5.1-0.9,7.8-0.9
		c6.8,0,12,1.2,15.6,3.6c3.5,2.4,5.4,5.8,5.7,10.2h-15.6c-0.2-1.7-0.9-2.8-2-3.3c-1.1-0.5-2.3-0.7-3.6-0.7c-1.2,0-2.3,0.2-3.3,0.7
		c-1,0.5-1.4,1.3-1.4,2.5c0,0.6,0.2,1.2,0.7,1.6c0.5,0.4,1.1,0.7,2,1c0.8,0.3,1.8,0.5,2.9,0.7c1.1,0.2,2.3,0.4,3.6,0.5
		c2,0.3,4.2,0.7,6.4,1.1s4.2,1.2,6,2.3c1.8,1.1,3.3,2.6,4.4,4.5s1.8,4.4,1.8,7.5c0,2.7-0.6,5-1.7,6.9c-1.1,1.9-2.7,3.5-4.7,4.8
		c-2,1.3-4.3,2.2-7,2.8c-2.7,0.6-5.5,0.9-8.6,0.9C541.2,73.4,538.2,73,535.4,72.3z"/>
	<path class="st0" d="M587,9.2v12.5h-16.6V9.2H587z M587,27.2v44.7h-16.6V27.2H587z"/>
	<path class="st0" d="M605.6,71.5c-3-1.2-5.6-2.8-7.7-4.9c-2.1-2.1-3.8-4.6-5-7.5c-1.2-2.9-1.8-6-1.8-9.4c0-3.4,0.6-6.5,1.8-9.4
		c1.2-2.9,2.8-5.4,5-7.5c2.1-2.1,4.7-3.8,7.7-5c3-1.2,6.4-1.8,10.1-1.8c3.7,0,7.1,0.6,10.1,1.8c3,1.2,5.6,2.9,7.7,5
		c2.1,2.1,3.7,4.6,4.9,7.5c1.1,2.9,1.7,6,1.7,9.4c0,3.4-0.6,6.5-1.7,9.4c-1.1,2.9-2.8,5.4-4.9,7.5c-2.1,2.1-4.7,3.8-7.7,4.9
		c-3,1.2-6.4,1.8-10.1,1.8C611.9,73.3,608.6,72.7,605.6,71.5z M621.3,58.8c1.3-2.3,1.9-5.4,1.9-9.2s-0.6-6.8-1.9-9.2
		c-1.3-2.3-3.2-3.5-5.8-3.5c-2.6,0-4.5,1.2-5.7,3.5s-1.8,5.4-1.8,9.2s0.6,6.8,1.8,9.2s3.1,3.5,5.7,3.5
		C618.1,62.2,620,61.1,621.3,58.8z"/>
	<path class="st0" d="M660.2,33.3c1.8-2.5,3.9-4.3,6.2-5.6c2.3-1.3,5-1.9,8.2-1.9c5.2,0,9.1,1.6,11.7,4.7c2.6,3.2,3.9,7.3,3.9,12.4
		v28.9h-16.6V47c0-2.3-0.5-4.2-1.5-5.6c-1-1.4-2.6-2.1-4.7-2.1c-2.1,0-3.8,0.8-5,2.4c-1.2,1.6-1.8,3.6-1.8,6.1v24.1h-16.6V27.2h15.8
		v6.1H660.2z"/>
	<path class="st0" d="M383.3,83.4v62.6H365V83.4H383.3z"/>
	<path class="st0" d="M406.1,107.5c1.8-2.5,3.9-4.3,6.2-5.6c2.3-1.3,5-1.9,8.2-1.9c5.2,0,9.1,1.6,11.7,4.7c2.6,3.2,3.9,7.3,3.9,12.4
		v28.9h-16.6v-24.9c0-2.3-0.5-4.2-1.5-5.6c-1-1.4-2.6-2.1-4.7-2.1c-2.1,0-3.8,0.8-5,2.4c-1.2,1.6-1.8,3.6-1.8,6.1v24.1h-16.6v-44.7
		h15.8v6.1H406.1z"/>
	<path class="st0" d="M454.5,101.4l5.1,17.2c0.3,1.2,0.6,2.4,1,3.6c0.4,1.3,0.7,2.4,1,3.5c0.3,1.2,0.6,2.5,1,3.7h0.2
		c0.3-1.2,0.6-2.5,1-3.7c0.3-1.1,0.6-2.2,1-3.5c0.4-1.3,0.7-2.5,1.1-3.6l5.1-17.2h16.6L472,146.1h-19.4l-15.3-44.7H454.5z"/>
	<path class="st0" d="M500.6,145.5c-3-1.2-5.5-2.8-7.7-4.9c-2.2-2.1-3.8-4.6-5-7.5c-1.2-2.9-1.8-6.1-1.8-9.5c0-3.4,0.6-6.5,1.8-9.4
		c1.2-2.9,2.8-5.4,4.9-7.5c2.1-2.1,4.6-3.8,7.5-5c2.9-1.2,6.1-1.8,9.6-1.8c3.5,0,6.6,0.5,9.3,1.6c2.7,1.1,5.1,2.6,7.1,4.4
		c2.7,2.5,4.8,5.7,6,9.5c1.3,3.8,1.9,7.9,1.8,12.4h-31.9c0.5,2.6,1.4,4.7,2.8,6.1c1.4,1.5,3.4,2.2,5.9,2.2c2.9,0,5-1.1,6.2-3.3h16
		c-0.5,2-1.4,4-2.9,5.9c-1.5,1.9-3.3,3.5-5.6,4.9c-2,1.3-4.2,2.3-6.5,2.9c-2.3,0.6-4.9,0.9-7.8,0.9
		C506.9,147.3,503.5,146.7,500.6,145.5z M504.9,113.2c-1.3,1.4-2.2,3.4-2.6,5.8h15.4c-0.4-2.5-1.2-4.5-2.5-5.9
		c-1.3-1.4-3-2.1-4.9-2.1C508,111,506.2,111.7,504.9,113.2z"/>
	<path class="st0" d="M549.1,146.5c-2.7-0.7-5.1-1.7-7.1-3.1c-2-1.3-3.5-3-4.6-5c-1.1-2-1.7-4.3-1.7-6.8h15.9
		c0.1,1.9,0.7,3.3,1.9,4.3c1.1,1,2.8,1.5,4.9,1.5c1.6,0,3-0.3,4.1-0.9c1.1-0.6,1.6-1.6,1.6-2.9c0-0.9-0.3-1.7-0.9-2.2
		c-0.6-0.6-1.4-1-2.4-1.3c-1-0.3-2.1-0.6-3.5-0.8c-1.3-0.2-2.7-0.4-4.2-0.7c-1.9-0.3-3.8-0.7-5.7-1.1c-1.9-0.5-3.7-1.2-5.2-2.2
		c-1.5-1-2.8-2.4-3.8-4.2c-1-1.8-1.5-4-1.5-6.8c0-2.3,0.5-4.3,1.6-6.1c1.1-1.8,2.6-3.3,4.4-4.5c1.9-1.2,4-2.1,6.5-2.8
		c2.5-0.6,5.1-0.9,7.8-0.9c6.8,0,12,1.2,15.6,3.6c3.5,2.4,5.4,5.8,5.7,10.2h-15.6c-0.2-1.7-0.9-2.8-2-3.3c-1.1-0.5-2.3-0.7-3.6-0.7
		c-1.2,0-2.3,0.2-3.3,0.7s-1.4,1.3-1.4,2.5c0,0.6,0.2,1.2,0.7,1.6s1.1,0.7,2,1c0.8,0.3,1.8,0.5,2.9,0.7c1.1,0.2,2.3,0.4,3.6,0.5
		c2,0.3,4.2,0.7,6.4,1.1c2.2,0.5,4.2,1.2,6,2.3c1.8,1.1,3.3,2.6,4.4,4.5c1.2,1.9,1.8,4.4,1.8,7.5c0,2.7-0.6,5-1.7,6.9
		c-1.1,1.9-2.7,3.5-4.7,4.8c-2,1.3-4.3,2.2-7,2.8c-2.7,0.6-5.5,0.9-8.6,0.9C554.9,147.6,551.8,147.2,549.1,146.5z"/>
	<path class="st0" d="M586.2,101.4V86.9h16.2v14.5h8.5v10h-8.5v18.1c0,1.1,0.2,2,0.6,2.6s0.9,1.1,1.7,1.3c0.7,0.3,1.6,0.4,2.6,0.4
		c1,0,2.2,0,3.5-0.1v12.2c-1.3,0.3-2.6,0.5-3.9,0.7c-1.3,0.2-2.7,0.3-4.2,0.3c-2.7,0-5.1-0.2-7.2-0.7c-2-0.4-3.7-1.2-5.1-2.2
		c-1.3-1.1-2.4-2.5-3.1-4.2s-1.1-4-1.1-6.7v-21.8h-5.8v-10H586.2z"/>
	<path class="st0" d="M631,101.4v6.7h0.3c1.6-2.6,3.5-4.6,5.7-6c2.2-1.4,5.1-2.1,8.5-2.1c3,0,5.5,0.7,7.7,2.1c2.2,1.4,3.8,3.3,5,5.7
		h0.3c1.9-3,4.1-5,6.6-6.1c2.5-1.1,5.1-1.7,8.1-1.7c2.7,0,5.1,0.5,7.1,1.4c2,0.9,3.6,2.2,4.9,3.8c1.3,1.6,2.2,3.5,2.8,5.7
		c0.6,2.2,0.9,4.6,0.9,7.1v28.1h-16.6V121c0-2.3-0.4-4.1-1.3-5.5c-0.8-1.4-2.3-2.1-4.4-2.1c-2,0-3.6,0.8-4.6,2.4
		c-1.1,1.6-1.6,3.6-1.6,6.1v24.1h-16.6V121c0-2.3-0.4-4.1-1.3-5.5c-0.8-1.4-2.3-2.1-4.4-2.1c-2,0-3.6,0.8-4.6,2.4
		c-1.1,1.6-1.6,3.6-1.6,6.1v24.1h-16.6v-44.7H631z"/>
	<path class="st0" d="M707,145.5c-3-1.2-5.5-2.8-7.7-4.9c-2.2-2.1-3.8-4.6-5-7.5c-1.2-2.9-1.8-6.1-1.8-9.5c0-3.4,0.6-6.5,1.8-9.4
		s2.8-5.4,4.9-7.5c2.1-2.1,4.6-3.8,7.5-5c2.9-1.2,6.1-1.8,9.6-1.8c3.5,0,6.6,0.5,9.3,1.6c2.7,1.1,5.1,2.6,7.1,4.4
		c2.7,2.5,4.8,5.7,6,9.5s1.9,7.9,1.8,12.4h-31.9c0.5,2.6,1.4,4.7,2.8,6.1c1.4,1.5,3.4,2.2,5.9,2.2c2.9,0,5-1.1,6.2-3.3h16
		c-0.5,2-1.4,4-2.9,5.9c-1.5,1.9-3.3,3.5-5.6,4.9c-2,1.3-4.2,2.3-6.5,2.9c-2.3,0.6-4.9,0.9-7.8,0.9
		C713.3,147.3,709.9,146.7,707,145.5z M711.3,113.2c-1.3,1.4-2.2,3.4-2.6,5.8h15.4c-0.3-2.5-1.2-4.5-2.5-5.9c-1.3-1.4-3-2.1-4.9-2.1
		C714.4,111,712.6,111.7,711.3,113.2z"/>
	<path class="st0" d="M760.8,107.5c1.8-2.5,3.9-4.3,6.2-5.6c2.3-1.3,5-1.9,8.2-1.9c5.2,0,9.1,1.6,11.7,4.7c2.6,3.2,3.9,7.3,3.9,12.4
		v28.9h-16.6v-24.9c0-2.3-0.5-4.2-1.5-5.6c-1-1.4-2.6-2.1-4.7-2.1c-2.1,0-3.8,0.8-5,2.4c-1.2,1.6-1.8,3.6-1.8,6.1v24.1h-16.6v-44.7
		h15.8v6.1H760.8z"/>
	<path class="st0" d="M799,101.4V86.9h16.2v14.5h8.5v10h-8.5v18.1c0,1.1,0.2,2,0.6,2.6c0.4,0.6,0.9,1.1,1.7,1.3
		c0.7,0.3,1.6,0.4,2.6,0.4c1,0,2.2,0,3.5-0.1v12.2c-1.3,0.3-2.6,0.5-3.9,0.7c-1.3,0.2-2.7,0.3-4.2,0.3c-2.7,0-5.1-0.2-7.2-0.7
		c-2-0.4-3.7-1.2-5.1-2.2c-1.3-1.1-2.4-2.5-3.1-4.2s-1.1-4-1.1-6.7v-21.8h-5.8v-10H799z"/>
	<path class="st0" d="M839.6,146.5c-2.7-0.7-5.1-1.7-7.1-3.1c-2-1.3-3.5-3-4.6-5c-1.1-2-1.7-4.3-1.7-6.8h15.9
		c0.1,1.9,0.7,3.3,1.9,4.3c1.1,1,2.8,1.5,4.9,1.5c1.6,0,3-0.3,4.1-0.9c1.1-0.6,1.6-1.6,1.6-2.9c0-0.9-0.3-1.7-0.9-2.2
		c-0.6-0.6-1.4-1-2.4-1.3c-1-0.3-2.1-0.6-3.5-0.8c-1.3-0.2-2.7-0.4-4.2-0.7c-1.9-0.3-3.8-0.7-5.7-1.1c-1.9-0.5-3.7-1.2-5.2-2.2
		c-1.5-1-2.8-2.4-3.8-4.2c-1-1.8-1.5-4-1.5-6.8c0-2.3,0.5-4.3,1.6-6.1c1.1-1.8,2.6-3.3,4.4-4.5c1.9-1.2,4-2.1,6.5-2.8
		c2.5-0.6,5.1-0.9,7.8-0.9c6.8,0,12,1.2,15.6,3.6c3.5,2.4,5.4,5.8,5.7,10.2h-15.6c-0.2-1.7-0.9-2.8-2-3.3c-1.1-0.5-2.3-0.7-3.6-0.7
		c-1.2,0-2.3,0.2-3.3,0.7c-1,0.5-1.4,1.3-1.4,2.5c0,0.6,0.2,1.2,0.7,1.6c0.5,0.4,1.1,0.7,2,1c0.8,0.3,1.8,0.5,2.9,0.7
		c1.1,0.2,2.3,0.4,3.6,0.5c2,0.3,4.2,0.7,6.4,1.1c2.2,0.5,4.2,1.2,6,2.3c1.8,1.1,3.3,2.6,4.4,4.5c1.2,1.9,1.8,4.4,1.8,7.5
		c0,2.7-0.6,5-1.7,6.9c-1.1,1.9-2.7,3.5-4.7,4.8c-2,1.3-4.3,2.2-7,2.8c-2.7,0.6-5.5,0.9-8.6,0.9
		C845.4,147.6,842.4,147.2,839.6,146.5z"/>
	<path class="st0" d="M0.3-0.1v158.2h162.2V-0.1H0.3z M81.4,154.7c-42.6,0-77.1-33.9-77.1-75.7c0-41.8,34.5-75.7,77.1-75.7
		s77.1,33.9,77.1,75.7C158.5,120.8,124,154.7,81.4,154.7z"/>
	<ellipse class="st0" cx="255.3" cy="79" rx="77.1" ry="77.3"/>
</g>
</svg>
